<?xml version="1.0" standalone="no"?>
<!DOCTYPE svg PUBLIC "-//W3C//DTD SVG 20010904//EN"
 "http://www.w3.org/TR/2001/REC-SVG-20010904/DTD/svg10.dtd">
<svg version="1.0" xmlns="http://www.w3.org/2000/svg"
 width="144.000000pt" height="144.000000pt" viewBox="0 0 144.000000 144.000000"
 preserveAspectRatio="xMidYMid meet">
<metadata>
Created by potrace 1.11, written by Peter Selinger 2001-2013
</metadata>
<g transform="translate(0.000000,144.000000) scale(0.100000,-0.100000)"
fill="#000000" stroke="none">
<path d="M150 1427 c-47 -20 -105 -74 -127 -118 -22 -44 -22 -46 -20 -603 2
-437 5 -560 15 -564 6 -2 12 -9 12 -16 0 -18 60 -79 101 -103 35 -20 48 -20
580 -21 610 0 590 -3 664 73 65 68 63 48 63 647 1 538 0 543 -21 587 -25 50
-86 104 -137 119 -48 15 -1095 13 -1130 -1z"/>
</g>
</svg>
